<svg xmlns="http://www.w3.org/2000/svg" viewBox="0 0 60.264 60.264"><path d="M49.988 0h-39.71C4.612 0 0 4.616 0 10.277v39.71c0 5.666 4.611 10.276 10.277 10.276h39.711c5.666 0 10.275-4.615 10.275-10.276v-39.71C60.264 4.611 55.654 0 49.988 0zM7.16 2.485c-2.217 1.89-3.653 4.66-3.653 7.792v.525H1.871v-.525C1.869 6.74 4.064 3.725 7.16 2.485zM1.869 49.052V37.783h1.636v11.269H1.869zm0-13.139V24.937h1.636v10.977H1.869zm0-12.847V12.673h1.636v10.393H1.869zm.093 27.854h1.635a10.19 10.19 0 0 0 3.56 6.859 8.392 8.392 0 0 1-5.195-6.859zm3.504 0h3.247a4.52 4.52 0 0 0 4.41 3.577 4.517 4.517 0 0 0 4.511-4.515 4.519 4.519 0 0 0-4.511-4.517 4.52 4.52 0 0 0-4.41 3.577h-3.34V37.774h3.343a4.52 4.52 0 0 0 4.411 3.577 4.517 4.517 0 0 0 4.51-4.513 4.517 4.517 0 0 0-4.51-4.514A4.518 4.518 0 0 0 8.716 35.9H5.373V24.925h3.343a4.517 4.517 0 0 0 4.411 3.575 4.516 4.516 0 0 0 4.51-4.514 4.516 4.516 0 0 0-4.51-4.515 4.517 4.517 0 0 0-4.411 3.576H5.373V12.655h3.343a4.518 4.518 0 0 0 4.411 3.576 4.516 4.516 0 0 0 4.51-4.512 4.516 4.516 0 0 0-4.51-4.513 4.518 4.518 0 0 0-4.411 3.574H5.373v-.502c0-4.634 3.773-8.409 8.409-8.409h6.073v56.527h-6.073c-4.317 0-7.842-3.284-8.316-7.476zm5.204-1.868a2.624 2.624 0 0 1 2.452-1.701 2.643 2.643 0 0 1 2.643 2.642 2.647 2.647 0 0 1-2.643 2.641 2.629 2.629 0 0 1-2.452-1.703h2.452v-1.878H10.67zm0-13.139a2.623 2.623 0 0 1 2.452-1.702 2.643 2.643 0 0 1 2.643 2.642 2.648 2.648 0 0 1-2.643 2.642 2.63 2.63 0 0 1-2.452-1.704h2.452v-1.87H10.67v-.008zm0-12.847a2.623 2.623 0 0 1 2.452-1.703 2.644 2.644 0 0 1 2.643 2.642 2.645 2.645 0 0 1-2.643 2.641 2.629 2.629 0 0 1-2.452-1.703h2.452v-1.871H10.67v-.006zm0-12.263A2.624 2.624 0 0 1 13.123 9.1c1.458 0 2.643 1.184 2.643 2.642s-1.188 2.642-2.643 2.642a2.63 2.63 0 0 1-2.452-1.703h2.452v-1.87H10.67v-.008zm47.726 39.184c0 4.633-3.772 8.408-8.407 8.408H21.723V1.868h28.265c4.633 0 8.407 3.768 8.407 8.409v39.71zm-4.873-12.991H27.105v-1.87h26.418v1.87zm-.075-5.764h-26.34v-1.874h26.34v1.874zm.075 11.534H27.105v-1.873h26.418v1.873zm-26.09-25.269H31.506c1.109 0 1.953.26 2.533.777.574.521.866 1.279.866 2.273 0 1.049-.292 1.848-.866 2.387-.58.544-1.424.82-2.533.82-.785-.004-1.465 0-2.04.014v3.461h-2.037v-9.733h.004zm2.031 4.58h1.698c.568 0 .996-.123 1.283-.375.282-.248.426-.633.426-1.135 0-.466-.144-.813-.426-1.045-.287-.234-.718-.346-1.283-.346h-1.698v2.901zm7.011-4.58h4.17c1.337 0 2.354.392 3.055 1.18.693.785 1.038 1.936 1.038 3.453 0 1.667-.358 2.936-1.082 3.802-.725.869-1.783 1.303-3.173 1.303h-4.009v-9.738h.001zm2.035 8.057h1.713c.828 0 1.441-.278 1.859-.832.41-.561.62-1.399.62-2.514 0-1.014-.196-1.77-.579-2.278-.379-.506-.958-.756-1.729-.756H38.51v6.38zm7.764 1.676v-9.733h6.925v1.729h-4.897v2.209h4.266v1.674h-4.266v4.117h-1.013l-1.015.004z"/></svg>