<svg xmlns="http://www.w3.org/2000/svg" viewBox="0 0 513.33331 517.33331" fill="#fea210"><path d="M103.921 343.415c50.776 60.692 111.896 108.478 181.658 142.29 26.557 12.59 62.077 27.522 101.65 30.085 2.454.103 4.802.207 7.255.207 26.557 0 47.89-9.171 65.276-28.052.11-.104.323-.317.428-.53 6.187-7.47 13.228-14.188 20.588-21.334 5.016-4.802 10.136-9.813 15.041-14.933 22.719-23.681 22.719-53.76-.213-76.692l-64.11-64.11c-10.88-11.307-23.89-17.28-37.546-17.28-13.65 0-26.77 5.973-37.975 17.177l-38.181 38.181c-3.521-2.025-7.152-3.837-10.563-5.547-4.265-2.129-8.213-4.156-11.734-6.396-34.771-22.082-66.344-50.88-96.531-87.894-15.256-19.308-25.495-35.522-32.641-52.054 10.026-9.066 19.412-18.561 28.48-27.837 3.197-3.308 6.504-6.615 9.812-9.923 11.521-11.52 17.708-24.853 17.708-38.401 0-13.547-6.078-26.88-17.708-38.4l-31.787-31.787c-3.735-3.729-7.25-7.36-10.88-11.094-7.036-7.25-14.401-14.719-21.65-21.438-10.991-10.776-23.896-16.426-37.549-16.426-13.546 0-26.561 5.65-37.973 16.53L24.88 57.653C10.374 72.16 2.161 89.757.46 110.133c-2.032 25.495 2.667 52.588 14.822 85.334 18.667 50.666 46.828 97.708 88.64 147.948zM26.484 112.372c1.276-14.187 6.719-26.025 16.959-36.265l39.682-39.683c6.182-5.968 13.011-9.061 19.624-9.061 6.506 0 13.12 3.093 19.199 9.276 7.145 6.614 13.87 13.546 21.12 20.905 3.63 3.735 7.359 7.47 11.093 11.308l31.787 31.787c6.615 6.614 10.025 13.333 10.025 19.948 0 6.613-3.41 13.333-10.025 19.946-3.308 3.308-6.615 6.72-9.917 10.027-9.922 10.027-19.203 19.521-29.443 28.588l-.53.532c-8.855 8.853-7.47 17.281-5.334 23.683.104.317.213.53.317.848 8.214 19.734 19.626 38.51 37.443 60.912 32 39.464 65.704 70.077 102.823 93.65 4.589 2.984 9.496 5.334 14.084 7.683 4.265 2.13 8.213 4.156 11.734 6.396.422.213.744.427 1.172.64 3.52 1.813 6.932 2.667 10.343 2.667 8.537 0 14.084-5.438 15.896-7.25l39.89-39.896c6.189-6.188 12.907-9.494 19.522-9.494 8.11 0 14.719 5.014 18.88 9.494l64.323 64.214c12.797 12.802 12.693 26.666-.323 40.213-4.479 4.803-9.172 9.385-14.188 14.188-7.463 7.25-15.25 14.719-22.29 23.145-12.267 13.224-26.88 19.412-45.762 19.412-1.812 0-3.733-.104-5.547-.213-34.984-2.24-67.52-15.89-91.948-27.516-66.344-32.11-124.582-77.656-172.905-135.47-39.786-47.895-66.557-92.478-84.267-140.265-10.984-29.333-15.145-52.906-13.437-74.349z"/></svg>