<svg xmlns="http://www.w3.org/2000/svg" viewBox="0 0 872.03423 610.04906"><path d="M114.133 338.175l-43.75-75.766a7.96 7.96 0 0 1-.001-8 7.975 7.975 0 0 1 6.922-4h87.485l43.75-75.766a7.975 7.975 0 0 1 6.922-4c2.86 0 5.5 1.523 6.922 4l43.766 75.766h1.656v16h-1.668l-36.824 63.775 38.492-.017v16l-38.492.017 36.82 63.756h1.672v2.907c-15.93 17.995-26.324 39.656-30.398 62.846l-15.023 26.013a7.975 7.975 0 0 1-6.922 4c-2.86 0-5.5-1.523-6.922-4l-43.75-75.766H77.306a7.977 7.977 0 0 1-6.922-4 7.957 7.957 0 0 1 0-8l43.749-75.765zM91.164 266.41l36.844 63.818 73.61-.03-36.817-63.788H91.164zm161.129-7.999l-36.832-63.766-36.817 63.766 36.817 63.79 36.832-63.79zm-36.832 223.296l36.828-63.766-36.828-63.764-36.817 63.764 36.817 63.766zm-50.66-71.766l36.809-63.744-73.66.031-36.786 63.713h73.637zM119.761 480.017c13.234 0 24 10.766 24 24s-10.766 24-24 24-24-10.766-24-24c0-13.233 10.766-24 24-24zm0 32c4.422 0 8-3.58 8-8a8 8 0 1 0-8 8zM24 314.222c13.234 0 24 10.766 24 24s-10.766 24-24 24-24-10.766-24-24 10.765-24 24-24zm0 32c4.422 0 8-3.58 8-8 0-4.418-3.578-8-8-8-4.414 0-8 3.582-8 8 0 4.42 3.585 8 8 8zM119.703 148.362c13.234 0 24 10.766 24 24s-10.766 24-24 24-24-10.766-24-24 10.766-24 24-24zm0 32c4.422 0 8-3.58 8-8 0-4.418-3.578-8-8-8-4.414 0-8 3.582-8 8 0 4.42 3.586 8 8 8z" fill="#2295ca"/><path d="M283.551 419.137V242.241h-.001c0-18.375 6.394-35.1 16.758-48.624-7.734-3.99-13.09-11.97-13.09-21.255 0-13.234 10.766-24 24-24 11.61 0 21.313 8.291 23.519 19.261 8.973-3.478 18.645-5.574 28.859-5.574 44.289 0 79.969 34.496 79.969 78.784V418.05c19.747 20.256 32.13 49.28 32.13 79.808 0 61.937-50.258 112.192-112.258 112.192-61.965 0-112.254-50.256-112.254-112.192.001-30.687 12.497-58.432 32.368-78.72zm27.667-254.775c-4.422 0-8 3.582-8 8 0 4.42 3.578 8 8 8 4.414 0 8-3.58 8-8 0-4.418-3.585-8-8-8zm52.219 429.687c53.078 0 96.258-43.15 96.258-96.192 0-25.638-10.054-50.655-27.586-68.64l-4.543-4.66V240.834c0-35.206-28.098-62.784-63.969-62.784-35.317 0-64.047 28.796-64.047 64.191v183.427l-4.57 4.665c-17.926 18.302-27.797 42.282-27.797 67.524 0 53.041 43.18 96.192 96.254 96.192z" fill="#2295ca"/><path d="M355.695 450.856V258.05c0-4.422 3.578-8 8-8 4.422 0 8 3.578 8 8v192.806c22.68 3.826 40 23.424 40 47.194 0 26.51-21.492 48-48 48s-48-21.49-48-48c0-23.769 17.32-43.367 40-47.193zm8 79.193c17.645 0 32-14.355 32-32 0-17.646-14.355-32-32-32s-32 14.354-32 32c0 17.645 14.355 32 32 32zM870.443 274.813l-20.746 12.448c-10.266 6.159-12.984 19.827-5.855 29.446l14.402 19.438c1.473 1.99.297 4.833-2.152 5.198l-23.934 3.562c-11.84 1.762-19.582 13.348-16.68 24.962l5.871 23.47c.531 2.129-1.117 4.079-3.172 4.079a3.32 3.32 0 0 1-.809-.101l-23.473-5.868a20.346 20.346 0 0 0-4.938-.611c-9.782 0-18.512 7.138-20.023 17.289l-3.558 23.933c-.258 1.71-1.718 2.801-3.258 2.801-.664 0-1.34-.203-1.942-.649l-19.442-14.403a20.139 20.139 0 0 0-12.039-3.986c-6.85 0-13.578 3.464-17.402 9.842l-12.45 20.746a3.248 3.248 0 0 1-2.81 1.591 3.252 3.252 0 0 1-2.813-1.593l-12.445-20.747c-3.828-6.377-10.554-9.842-17.406-9.842a20.132 20.132 0 0 0-12.039 3.986l-19.44 14.403a3.229 3.229 0 0 1-1.943.649c-1.535 0-3-1.09-3.254-2.801l-3.543-23.796c3.082-6.62 5.516-13.598 7.031-20.928 4.512 5.074 7.718 11.354 8.774 18.437l.442 2.964 2.406-1.783c6.297-4.665 13.754-7.13 21.566-7.13 12.68 0 24.606 6.747 31.125 17.611l1.54 2.565 1.538-2.565c6.516-10.864 18.442-17.612 31.125-17.612 7.813 0 15.27 2.465 21.562 7.129l2.41 1.784.442-2.963c2.621-17.636 18.035-30.934 35.848-30.934 2.961 0 5.926.366 8.817 1.089l2.906.726-.726-2.906a36.333 36.333 0 0 1 5.031-28.944 36.332 36.332 0 0 1 24.817-15.722l2.965-.442-1.782-2.402a36.339 36.339 0 0 1-6.434-28.667 36.346 36.346 0 0 1 16.91-24.026l2.57-1.54-2.575-1.543a36.335 36.335 0 0 1-16.906-24.022 36.335 36.335 0 0 1 6.43-28.666l1.782-2.404-2.96-.442a36.334 36.334 0 0 1-24.818-15.722 36.352 36.352 0 0 1-5.03-28.946l.725-2.903-2.902.726a36.43 36.43 0 0 1-8.817 1.09c-17.817 0-33.23-13.3-35.85-30.938l-.443-2.959-2.402 1.782c-6.297 4.665-13.754 7.131-21.566 7.131-12.68 0-24.606-6.748-31.125-17.61l-1.543-2.57-1.539 2.567c-6.516 10.863-18.442 17.612-31.125 17.612-.984 0-1.946-.154-2.918-.231 1.328-5.172 2.305-10.438 2.973-15.775 6.836-.019 13.535-3.474 17.348-9.835l12.45-20.748a3.253 3.253 0 0 1 2.813-1.593c1.086 0 2.176.531 2.813 1.593l12.45 20.747c3.828 6.378 10.554 9.842 17.406 9.842 4.176 0 8.398-1.287 12.04-3.986l19.437-14.403a3.237 3.237 0 0 1 1.942-.649c1.54 0 3 1.09 3.258 2.801l3.558 23.93c1.512 10.152 10.246 17.291 20.027 17.291 1.625 0 3.282-.198 4.938-.612l23.47-5.868c.273-.068.546-.101.808-.101 2.054 0 3.703 1.95 3.172 4.079l-5.87 23.472c-2.903 11.614 4.84 23.199 16.68 24.961l23.933 3.562c2.45.364 3.625 3.207 2.152 5.198l-14.406 19.439c-7.127 9.618-4.409 23.283 5.853 29.442l20.75 12.448c2.118 1.275 2.118 4.352-.003 5.626z" fill="#2295ca"/><path d="M696.037 384c-23.8 0-45.738-7.57-63.859-20.242v-20.187c16.97 15.183 39.348 24.429 63.86 24.429 52.933 0 96-43.066 96-95.999 0-52.934-43.067-95.999-96-95.999-24.513 0-46.89 9.245-63.86 24.428v-3.229c7.45-8.415 13.641-17.66 18.598-27.458 13.851-6.164 29.11-9.742 45.262-9.742 61.855.002 112 50.145 112 112S757.892 384 696.038 384z" fill="#2295ca"/><path d="M616.177 190.912v176.896h.001c0 44.288-35.73 80.192-80.047 80.192-44.289 0-79.969-34.496-79.969-78.784V192c-19.746-20.256-32.129-49.28-32.129-79.808C424.033 50.256 474.291 0 536.291 0c61.965 0 112.254 50.256 112.254 112.192 0 30.687-12.497 58.432-32.368 78.72zM536.291 16c-53.078 0-96.258 43.151-96.258 96.192 0 25.638 10.054 50.655 27.586 68.64l4.543 4.66V369.216c0 35.206 28.097 62.784 63.97 62.784 35.316 0 64.046-28.796 64.046-64.191V184.382l4.57-4.665c17.926-18.302 27.797-42.282 27.797-67.525 0-53.041-43.18-96.192-96.254-96.192z" fill="#2295ca"/><path d="M544.033 159.193V352c0 4.422-3.578 8-8 8-4.422 0-8-3.578-8-8V159.194c-22.68-3.827-40-23.425-40-47.194 0-26.51 21.492-48 48-48s48 21.49 48 48c0 23.769-17.32 43.367-40 47.193zm-8-79.193c-17.645 0-32 14.355-32 32 0 17.646 14.355 32 32 32s32-14.354 32-32c0-17.645-14.355-32-32-32z" fill="#2295ca"/></svg>