<svg xmlns="http://www.w3.org/2000/svg" viewBox="0 0 512 512"><path d="M321.6 427.4c-42.2-16.8-69.9-57.6-69.9-103 0-8 .9-15.9 2.6-23.7 2.2-10 5.8-19.7 10.7-28.7 2-3.7 1.1-8.4-2.3-10.9-3.2-2.4-6.3-5-9.2-7.8-8.5-8.2-15.3-18-20-28.8-4.8-11.2-7.3-23.2-7.3-35.4.1-14 3.6-27.7 10.1-40.1 2.2-4.1 4.4-8.1 7-12.1 1.9-2.8 1.9-6.5 0-9.4l-17.8-28.4-17.1-27.4c-2-3.2-4.7-5.9-7.9-7.9-11.4-7-26.2-3.5-33.2 7.9l-50.2 80.6c-11.3 18.1-22.9 36.8-34.9 54.8l-3.4 5C64.3 232.5 51 253.8 39 275.8c-11.6 22.5-17.7 47.6-17.7 72.9 0 21.9 4.4 43.5 13.1 63.6 17.2 39.3 48.9 70.4 88.6 86.7 20.5 8.5 42.5 12.9 64.7 12.9 22.2.1 44.2-4.3 64.7-12.8 19.7-8.1 37.7-19.9 52.9-34.9 7.5-7.4 14.3-15.5 20.3-24.1.4-.5.7-1.1.9-1.8 1.6-4.3-.5-9.2-4.9-10.9zm-28.3 24.9c-13.6 13.3-29.8 23.9-47.4 31.1-37.3 15.3-79.1 15.3-116.3 0-35.6-14.6-64-42.5-79.4-77.8-7.7-18-11.7-37.3-11.7-56.9-.1-22.7 5.3-45 15.7-65.2 11.8-21.4 24.7-42.2 38.7-62.3l3.4-5c12.2-18.2 23.9-37 35.2-55.2l50.2-80.7c1.3-2.1 3.6-3.4 6.1-3.4 2.6.1 5 1.5 6.1 3.8l17.1 27.4 14.9 24.1c-1.6 2.6-3.2 5.5-4.9 8.5-7.7 14.9-11.8 31.5-11.8 48.3-.1 14.5 2.8 28.8 8.5 42.1 5.7 12.8 13.8 24.4 23.8 34.1 1.7 1.6 3.4 3.2 5.2 4.7-4.1 8.6-7.2 17.6-9.2 27-1.9 9-2.9 18.2-2.9 27.4 0 48.5 27.4 92.8 70.7 114.6-3.7 4.8-7.8 9.2-12 13.4z" fill="#2295ca"/><g fill="#2295ca"><path d="M100 442.4h-.4.4zM105.6 427.8c-10.4-10.2-18.8-22.3-24.6-35.7-5.8-13.7-8.7-28.5-8.5-43.3 0-17.2 4-34.1 11.9-49.4.2-.3.4-.7.6-1.1 1.9-4.3-.1-9.3-4.5-11.2-4.3-1.9-9.3.1-11.2 4.5-9.1 17.7-13.9 37.3-13.8 57.2 0 17.2 3.4 34.3 10.2 50.1C72.4 414.3 82 428.3 94 440c1.5 1.5 3.6 2.4 5.8 2.5 2.2-.1 4.3-.9 5.9-2.5 3.3-3.5 3.2-8.9-.1-12.2z"/></g><path d="M419 140.5c-8-14.5-16.9-28.6-26.4-42.1l-1.7-2.5c-9.6-13.6-18.1-27.8-26.6-41.5L335.6 8.8c-1.5-2.4-3.5-4.4-5.9-5.9C321-2.6 309.5 0 304 8.8l-28.5 45.6c-8.5 14.1-17.4 28-26.4 41.9-7 10.2-14.1 20.6-20.4 31.2-2.6 4.1-5.1 8.4-7.7 13.3-7.7 14.9-11.8 31.5-11.8 48.3-.1 14.5 2.8 28.8 8.5 42.1 5.7 12.8 13.8 24.4 23.8 34.1 3.4 3.3 7 6.4 10.7 9.2 1.5 1.1 3.3 1.7 5.1 1.7l1.9-.3c2.4-.5 4.5-2.1 5.7-4.3 9.7-18.1 24.3-33.2 42.1-43.4 32.9-18.6 72.9-19.5 106.5-2.4.4.2.9.4 1.4.6 4.5 1.4 9.3-1 10.7-5.5 8.7-26.6 6.3-55.5-6.6-80.4zm-7.1 65.7c-36.9-15.1-78.7-12.5-113.4 7.2-17.5 10.1-32.4 24.3-43.3 41.4l-1.8-1.7c-8.5-8.2-15.3-18-20-28.8-4.8-11.2-7.3-23.2-7.3-35.4 0-14 3.4-27.9 9.8-40.3 2.2-3.8 4.5-8.2 7.2-12.4 6.1-10.4 13.1-20.6 20-30.7 9.4-13.8 18.4-28.1 27-42.1L318.6 18c.3-.5.8-.8 1.4-.8.6 0 1.1.3 1.4.8l27.9 45.3c8.6 13.9 17.6 28.2 27 42.1l1.7 2.5c9.3 13 17.8 26.6 25.6 40.5 9.1 17.7 12.1 38.1 8.3 57.8z" fill="#2295ca"/><path d="M277.2 228.6c-5.3-5.2-9.6-11.3-12.6-18.1-2.9-6.8-4.4-14.2-4.4-21.7 0-8.5 2-17 6-24.6 1.7-3.2 3.5-6.4 5.6-9.7l.5-.9c.1-.2.3-.4.4-.6 2.3-4.1.8-9.3-3.3-11.6-4.1-2.3-9.3-.8-11.6 3.3l-.5.8c-2.2 3.6-4.4 7.2-6.2 10.8-5.2 10-7.9 21.2-7.9 32.5 0 9.8 2 19.5 5.9 28.5 3.9 8.8 9.4 16.7 16.3 23.5 1.6 1.5 3.7 2.4 6 2.4v.1c2.3 0 4.6-.9 6.2-2.6 3.1-3.4 3-8.8-.4-12.1z" fill="#2295ca"/><path d="M421.5 210.7c-38.9-19.8-85.1-18.8-123 2.7-20.6 11.9-37.4 29.2-48.6 50.2-5.7 10.5-9.9 21.7-12.5 33.4-1.9 9-2.9 18.2-2.9 27.4 0 70.7 57.3 127.9 127.9 127.9 47.9.1 91.8-26.6 113.8-69.1 32.6-62.8 8.1-140-54.7-172.5zm-59 224.5c-61.2 0-110.9-49.6-110.9-110.9 0-8 .9-16 2.6-23.8 2.2-10.1 5.8-19.8 10.7-28.8 19.3-35.9 56.8-58.2 97.6-58.3 61.2 0 110.9 49.6 110.9 110.9s-49.6 110.9-110.9 110.9z" fill="#2295ca"/><path d="M392.5 244.6c-3.1-3.3-7.4-5.2-11.9-5.2h-36.3c-4.5 0-8.9 1.9-11.9 5.2-2.9 3.1-4.3 7.3-4 11.5l6.4 79.5c.8 8.2 7.7 14.4 16 14.3h23.5c8.1.1 15-5.9 16-13.9l6.4-79.9c.2-4.2-1.3-8.4-4.2-11.5zm-19.1 88.3h-21.7l-6.3-76.8h34.1l-6.1 76.8zM366.9 367h-9c-11.6 0-21 9.5-21.1 21.1v9c0 11.6 9.5 21 21.1 21.1h9c11.6 0 21.1-9.5 21.1-21.2v-9c.1-11.6-9.4-21-21.1-21zm4.1 30c0 2.2-1.8 4-4 4h-9c-2.2 0-4-1.8-4-4v-9c0-2.2 1.8-4 4-4h9c2.2 0 4 1.8 4 4v9z" fill="#2295ca"/></svg>