<svg xmlns="http://www.w3.org/2000/svg" viewBox="0 0 388.819 388.819"><path d="M368.753 175.923V80.088c0-13.132-10.684-23.816-23.816-23.816H43.882c-13.132 0-23.816 10.684-23.816 23.816v95.836C8.721 177.65 0 187.469 0 199.289v59.318a7.5 7.5 0 0 0 7.5 7.5h8.035v37a7.5 7.5 0 0 0 7.5 7.5h13.539v14.441a7.5 7.5 0 0 0 15 0v-14.441h285.672v14.441c0 4.142 3.357 7.5 7.5 7.5s7.5-3.358 7.5-7.5v-14.441h13.539a7.5 7.5 0 0 0 7.5-7.5v-37h8.034a7.5 7.5 0 0 0 7.5-7.5v-59.318c0-11.82-8.721-21.64-20.066-23.366zM35.065 80.088c0-4.861 3.955-8.816 8.816-8.816h301.055c4.861 0 8.816 3.955 8.816 8.816v95.566h-26.335a733.889 733.889 0 0 0 16.09-17.92 7.5 7.5 0 0 0-.001-9.845c-21.698-24.938-39.865-43.105-64.796-64.796a7.5 7.5 0 0 0-9.846 0c-24.932 21.692-43.098 39.859-64.795 64.796a7.5 7.5 0 0 0-.001 9.845 732.24 732.24 0 0 0 16.09 17.92h-51.503a733.868 733.868 0 0 0 16.091-17.92 7.5 7.5 0 0 0-.001-9.845c-21.695-24.934-39.862-43.101-64.796-64.796a7.5 7.5 0 0 0-9.846 0c-24.934 21.695-43.101 39.862-64.796 64.796a7.5 7.5 0 0 0-.001 9.845 735.947 735.947 0 0 0 16.091 17.92H35.065V80.088zm205.788 95.566c-6.901-7.084-13.872-14.611-21.15-22.842 17.929-20.287 33.803-36.161 54.085-54.086 20.282 17.924 36.156 33.799 54.086 54.086-7.277 8.231-14.249 15.758-21.15 22.842h-65.871zm-158.76 0c-6.901-7.085-13.873-14.611-21.151-22.842 17.926-20.283 33.803-36.16 54.086-54.086 20.283 17.926 36.16 33.803 54.086 54.086-7.277 8.231-14.249 15.757-21.151 22.842h-65.87zm276.192 119.953H30.535v-29.5h327.75v29.5zm15.534-44.5H15v-51.818c0-4.761 3.874-8.635 8.636-8.635h341.547c4.762 0 8.636 3.874 8.636 8.635v51.818z" fill="#2295ca"/></svg>