<svg xmlns="http://www.w3.org/2000/svg" viewBox="0 0 512 512"><path d="M305.169 89.716V50.772a8.017 8.017 0 0 0-8.017-8.017h-26.188V8.017c0-4.428-3.589-8.017-8.017-8.017s-8.017 3.588-8.017 8.017v34.739h-26.188a8.017 8.017 0 0 0-8.017 8.017v38.944C123.298 109.364 49.704 195.624 49.704 298.756 49.704 416.339 145.364 512 262.948 512c30.267 0 59.951-6.441 87.156-18.619l.509 2.035a8.014 8.014 0 0 0 7.777 6.072 8.015 8.015 0 0 0 7.777-6.072l2.93-11.718a212.54 212.54 0 0 0 32.889-23.255 8.017 8.017 0 0 0-10.459-12.153 196.304 196.304 0 0 1-16.816 12.952l3.51-14.041 42.618-14.552a8.017 8.017 0 0 0 0-15.174l-42.618-14.552-12.054-48.215a8.014 8.014 0 0 0-7.777-6.072 8.015 8.015 0 0 0-7.777 6.072l-12.054 48.215-42.618 14.552a8.017 8.017 0 0 0 0 15.174l42.618 14.552 7.588 30.351a197.325 197.325 0 0 1-61.103 17.171c5.623-10.129 10.552-24.753 14.858-43.997a8.016 8.016 0 0 0-6.073-9.574c-4.319-.96-8.607 1.754-9.573 6.073-8.901 39.786-18.608 48.741-21.307 48.741-2.903 0-13.248-9.87-22.385-53.728a400.85 400.85 0 0 1-1.586-8.05c7.906.559 15.903.851 23.971.851a8.017 8.017 0 0 0 8.017-8.017 8.017 8.017 0 0 0-8.017-8.017c-9.016 0-17.934-.378-26.716-1.104-3.151-20.793-5.426-44.123-6.731-68.935 10.96.37 22.135.561 33.447.561 11.306 0 22.473-.191 33.427-.56-.93 17.595-2.344 34.561-4.221 50.359a8.016 8.016 0 0 0 7.015 8.906c4.389.528 8.383-2.619 8.907-7.015 1.972-16.595 3.442-34.437 4.389-52.929 27.632-1.408 53.55-3.996 76.364-7.642-2.282 16.076-5.891 31.656-10.828 46.598a8.017 8.017 0 0 0 5.098 10.127c4.2 1.391 8.737-.893 10.127-5.098 5.767-17.456 9.823-35.711 12.166-54.568 1.452-.286 2.89-.575 4.309-.87 20.226-4.214 35.736-9.071 46.68-14.631-7.522 23.029-26.099 44.285-54.132 61.42a8.015 8.015 0 0 0-2.659 11.021 8.015 8.015 0 0 0 11.021 2.659c14.915-9.117 27.455-19.375 37.455-30.485a195.941 195.941 0 0 1-17.26 35.51 8.015 8.015 0 0 0 2.602 11.034 8.019 8.019 0 0 0 11.035-2.603c20.771-33.588 31.75-72.319 31.75-112.006-.002-103.13-73.596-189.39-171.025-209.038zm18.171 335.347l24.529-8.376a8.016 8.016 0 0 0 5.186-5.642l5.335-21.338 5.335 21.338a8.014 8.014 0 0 0 5.186 5.642l24.529 8.376-24.529 8.376a8.016 8.016 0 0 0-5.186 5.642l-5.335 21.338-5.335-21.338a8.016 8.016 0 0 0-5.186-5.642l-24.529-8.376zM236.76 58.789h52.376v28.332a214.385 214.385 0 0 0-26.188-1.61c-8.865 0-17.604.554-26.188 1.61V58.789zm26.188 103.683c-8.068 0-16.066.292-23.971.851a399.47 399.47 0 0 1 1.586-8.05c9.137-43.858 19.482-53.728 22.385-53.728s13.248 9.87 22.385 53.728a402.24 402.24 0 0 1 1.586 8.05 339.892 339.892 0 0 0-23.971-.851zm26.716 17.137c3.151 20.793 5.426 44.123 6.731 68.935a992.44 992.44 0 0 0-33.447-.561c-11.312 0-22.486.191-33.447.561 1.305-24.812 3.58-48.142 6.731-68.935 8.782-.726 17.7-1.104 26.716-1.104 9.016 0 17.934.379 26.716 1.104zm-49.871-74.865c-5.684 10.972-10.639 26.676-14.926 47.259a427.53 427.53 0 0 0-2.472 12.906c-21.685 2.637-42.459 7.387-61.703 14.084 19.087-38.117 47.04-65.301 79.101-74.249zm-27.057 227.459c-28.29-1.488-54.659-4.235-77.53-8.105-.698-8.299-1.06-16.757-1.06-25.341s.362-17.042 1.06-25.34c22.871-3.87 49.239-6.619 77.53-8.106a995.101 995.101 0 0 0 0 66.892zm.679 16.085c1.236 24.237 3.379 47.155 6.347 67.816-24.395-3.333-47.441-9.49-68.12-18.209-6.692-17.548-11.664-36.811-14.562-57.246 22.806 3.645 48.715 6.232 76.335 7.639zm0-99.065c-27.621 1.408-53.529 3.994-76.334 7.638 2.899-20.435 7.869-39.698 14.563-57.246 20.679-8.719 43.724-14.876 68.12-18.209-2.969 20.663-5.113 43.58-6.349 67.817zm-26.152-132.567c-9.996 9.02-19.307 19.901-27.73 32.535-7.835 11.751-14.628 24.634-20.329 38.384-9.011 4.097-17.583 8.659-25.622 13.684-14.149 8.843-26.114 18.734-35.727 29.415 19.004-51.504 58.927-92.959 109.408-114.018zm-65.184 98.199a195.723 195.723 0 0 1 9.204-5.392c-4.987 15.989-8.607 32.877-10.774 50.34-1.453.286-2.895.576-4.314.871-20.215 4.211-35.719 9.065-46.661 14.622 7.392-22.575 25.415-43.485 52.545-60.441zm-56.342 83.901c0-2.89 9.795-13.156 53.155-22.263-.512 7.349-.779 14.775-.779 22.263s.267 14.914.779 22.263c-43.36-9.107-53.155-19.373-53.155-22.263zm50.458 38.081c1.419.296 2.861.586 4.314.871 2.168 17.463 5.787 34.351 10.774 50.34a196.084 196.084 0 0 1-9.204-5.392c-27.13-16.956-45.153-37.866-52.546-60.442 10.943 5.558 26.448 10.412 46.662 14.623zm-38.341 30.001c9.613 10.68 21.578 20.572 35.727 29.415 8.039 5.025 16.611 9.587 25.622 13.684 5.701 13.75 12.494 26.633 20.329 38.384 8.423 12.634 17.734 23.515 27.73 32.535-50.48-21.06-90.403-62.515-109.408-114.018zm161.939 125.929c-32.061-8.948-60.014-36.133-79.101-74.249 19.244 6.697 40.018 11.447 61.703 14.084a427.53 427.53 0 0 0 2.472 12.906c4.289 20.584 9.242 36.288 14.926 47.259zm57.291-159.863a979.32 979.32 0 0 1-34.136.591c-11.564 0-22.976-.201-34.148-.591a980.015 980.015 0 0 1-.591-34.148c0-11.565.201-22.976.591-34.148a980.058 980.058 0 0 1 34.148-.591c11.564 0 22.976.201 34.148.591.39 11.172.591 22.583.591 34.148a966.62 966.62 0 0 1-.603 34.148zm6.417-167.995a430.673 430.673 0 0 0-2.472-12.906c-4.288-20.584-9.242-36.287-14.926-47.259 32.061 8.948 60.014 36.132 79.101 74.249-19.245-6.697-40.019-11.447-61.703-14.084zm2.631 16.498c24.395 3.333 47.441 9.49 68.12 18.209 6.693 17.548 11.664 36.811 14.563 57.246-22.805-3.643-48.714-6.231-76.334-7.638-1.236-24.238-3.379-47.155-6.349-67.817zm84.557 142.69c-22.872 3.87-49.242 6.617-77.534 8.105a992.484 992.484 0 0 0 .004-66.894c28.29 1.488 54.659 4.235 77.53 8.106a303.216 303.216 0 0 1 0 50.683zm-3.998-136.522c-5.701-13.75-12.494-26.633-20.329-38.384-8.423-12.634-17.734-23.515-27.73-32.535 50.481 21.059 90.404 62.513 109.408 114.018-9.61-10.68-21.576-20.571-35.726-29.415-8.039-5.024-16.611-9.587-25.623-13.684zm18.695 72.227c-2.168-17.463-5.787-34.351-10.774-50.34a196.95 196.95 0 0 1 9.204 5.391c27.13 16.956 45.153 37.866 52.546 60.442-10.942-5.557-26.448-10.411-46.661-14.622-1.42-.296-2.862-.586-4.315-.871zm1.619 61.216c.51-7.344.778-14.766.778-22.262 0-7.487-.267-14.913-.779-22.263 43.361 9.107 53.155 19.373 53.155 22.263 0 2.89-9.795 13.156-53.154 22.262z" fill="#2295ca"/><path d="M504.971 68.839l-42.618-14.552-12.054-48.215a8.016 8.016 0 0 0-15.554 0l-12.054 48.215-42.618 14.552a8.017 8.017 0 0 0 0 15.174l42.618 14.552 12.054 48.215a8.014 8.014 0 0 0 7.777 6.072 8.015 8.015 0 0 0 7.777-6.072l12.054-48.215 42.618-14.552a8.017 8.017 0 0 0 0-15.174zm-51.928 15.963a8.016 8.016 0 0 0-5.186 5.642l-5.335 21.338-5.335-21.338a8.014 8.014 0 0 0-5.186-5.642l-24.529-8.376 24.529-8.376a8.016 8.016 0 0 0 5.186-5.642l5.335-21.338 5.335 21.338a8.016 8.016 0 0 0 5.186 5.642l24.529 8.376-24.529 8.376zM131.927 103.043L89.309 88.492 77.255 40.277a8.017 8.017 0 0 0-15.554 0L49.647 88.492 7.029 103.043c-3.208 1.097-5.426 4.196-5.426 7.587s2.218 6.49 5.426 7.587l42.618 14.552 12.054 48.215a8.017 8.017 0 0 0 15.554 0l12.054-48.215 42.618-14.552a8.017 8.017 0 0 0 0-15.174zm-51.928 15.963a8.016 8.016 0 0 0-5.186 5.642l-5.335 21.338-5.335-21.338a8.016 8.016 0 0 0-5.186-5.642l-24.529-8.376 24.529-8.376a8.016 8.016 0 0 0 5.186-5.642l5.335-21.338 5.335 21.338a8.014 8.014 0 0 0 5.186 5.642l24.529 8.376-24.529 8.376z" fill="#2295ca"/></svg>