<svg xmlns="http://www.w3.org/2000/svg" viewBox="0 0 470 470"><g fill="#2295ca"><path d="M463.41 339.571c-4.25-4.25-9.9-6.591-15.91-6.591s-11.661 2.34-15.91 6.59a282.472 282.472 0 0 1-34.115 29.085l-23.121-95.071H387.5c12.407 0 22.5-10.093 22.5-22.5s-10.093-22.5-22.5-22.5h-14.159l11.221-63.588c2.156-12.218-6.03-23.912-18.25-26.068-12.214-2.149-23.91 6.035-26.065 18.248l-12.601 71.409H227.09V121.5a7.5 7.5 0 0 0-15 0v107.084H108.298l36.23-97.234a7.499 7.499 0 0 0-7.028-10.119H69.158L59.05 95.154l93.894-46.947a7.5 7.5 0 0 0 3.761-9.08l-6.449-19.346c34.938 5.174 61.833 35.364 61.833 71.717a7.5 7.5 0 0 0 15 0c0-48.248-39.252-87.5-87.5-87.5a7.498 7.498 0 0 0-7.115 9.872l7.943 23.829-94.181 47.093a7.5 7.5 0 0 0-3.639 9.418l14.432 37.231a7.5 7.5 0 0 0 6.993 4.79h62.68l-34.411 92.353H82.5c-12.407 0-22.5 10.093-22.5 22.5s10.093 22.5 22.5 22.5h13.145l-23.121 95.071a282.468 282.468 0 0 1-34.114-29.084c-4.25-4.25-9.9-6.591-15.91-6.591s-11.661 2.34-15.91 6.59C2.34 343.82 0 349.47 0 355.48s2.34 11.66 6.59 15.91C67.601 432.4 148.718 466 235 466s167.399-33.6 228.41-94.611c4.25-4.25 6.59-9.9 6.59-15.91a22.35 22.35 0 0 0-6.59-15.908zM355.019 159.782c.718-4.071 4.613-6.803 8.689-6.083 4.073.719 6.801 4.617 6.083 8.69l-11.681 66.195h-15.232l12.141-68.802zM75 251.084c0-4.136 3.364-7.5 7.5-7.5h305c4.136 0 7.5 3.364 7.5 7.5s-3.364 7.5-7.5 7.5h-305c-4.136 0-7.5-3.364-7.5-7.5zm253.043 22.5l29.02 119.331C319.035 411.555 278.001 421 235 421s-84.035-9.445-122.063-28.085l29.02-119.331h186.086zm124.76 87.199C394.626 418.96 317.275 451 235 451S75.374 418.96 17.197 360.783A7.45 7.45 0 0 1 15 355.48c0-2.003.78-3.887 2.197-5.304 1.417-1.417 3.299-2.196 5.303-2.196s3.886.78 5.303 2.197c13.854 13.854 29.085 26.342 45.27 37.116a7.502 7.502 0 0 0 11.444-4.47l26.566-109.238h15.437L96.953 395.162a7.5 7.5 0 0 0 3.847 8.437C141.855 424.796 188.261 436 235 436s93.145-11.205 134.201-32.402a7.5 7.5 0 0 0 3.847-8.437l-29.567-121.578h15.437l26.566 109.238a7.497 7.497 0 0 0 4.559 5.213 7.497 7.497 0 0 0 6.885-.743c16.185-10.774 31.416-23.262 45.27-37.117 1.417-1.417 3.299-2.196 5.303-2.196s3.886.78 5.303 2.197a7.447 7.447 0 0 1 2.197 5.303 7.455 7.455 0 0 1-2.198 5.305z"/><circle cx="149.59" cy="86.5" r="7.5"/></g></svg>