<svg xmlns="http://www.w3.org/2000/svg" viewBox="0 0 512.005 512.005"><path d="M464.005 328.146h48.001v15.719h-48.001zM112.001 448.142h144.004v15.719H112.001zM280.002 432.14h23.999v15.719h-23.999zM303.999 464.143h39.999v15.719h-39.999zM423.995 440.146h56v15.719h-56zM367.995 440.146h24v15.719h-24zM0 440.146h39.999v15.719H0zM56 456.148h16v15.719H56zM16.001 264.139h48.001v15.719H16.001zM72.002 264.139h144.004v15.719H72.002zM352 328.142H191.859v-24.281h21.761l22.02 14.68 8.719-13.078-25.98-17.32H16.001v15.719h48.14v24.281H0v15.719h352v-15.72zm-175.86 0H79.859v-24.281h96.281v24.281z"/><path d="M455.859 263.861h16.281v56.141h15.719v-71.859H440.14v40h-64.28v-40h-47.719v71.859h15.719v-56.141h16.281v144.333H0v15.719h512v-15.719h-56.141V263.861zm-15.718 144.333H375.86V383.86h64.281v24.334zm0-40.051H375.86v-24.281h64.281v24.281zm0-40.001H375.86v-24.281h64.281v24.281zM208.387 136.143c-10.656-21.448-31.708-36.849-56.526-39.562v-8.579h-15.719v8.579c-24.821 2.713-45.878 18.116-56.535 39.562H0v15.719h73.981a71.748 71.748 0 0 0-1.84 16.141v7.859h64v80.141h15.719v-80.141h64v-7.859a71.75 71.75 0 0 0-1.851-16.141H512v-15.719H208.387zm-119.979 24c3.832-27.25 27.302-48.281 55.593-48.281s51.759 21.032 55.592 48.281H88.408z"/><path d="M367.999 47.862c44.189 0 80.141 35.951 80.141 80.141h15.719c0-52.857-43.002-95.86-95.86-95.86-52.857 0-95.859 43.002-95.859 95.86h15.719c0-44.191 35.951-80.141 80.14-80.141z"/></svg>