<svg xmlns="http://www.w3.org/2000/svg" viewBox="0 0 512 512"><path d="M397.501 228.511H223.608v15.673h162.63l69.945 207.935H55.815l69.779-207.935h11.288v-15.673h-22.561L39.706 450.857v16.935h432.588v-16.937z"/><path d="M163.943 148.396c-10.936 0-19.832 8.897-19.832 19.833v83.972h15.674V168.23a4.164 4.164 0 0 1 4.159-4.16 4.164 4.164 0 0 1 4.159 4.16v19.993h15.673V168.23c0-10.937-8.897-19.834-19.833-19.834zM219.925 148.396c-10.936 0-19.832 8.897-19.832 19.833v83.972h15.674V168.23a4.164 4.164 0 0 1 4.16-4.16 4.164 4.164 0 0 1 4.159 4.16v19.993h15.673V168.23c-.001-10.936-8.898-19.834-19.834-19.834z"/><path d="M168.229 196.117h24.033v15.674h-24.033zM168.229 228.509h24.033v15.673h-24.033z"/><path d="M421.449 196.119H223.608v15.673h186.666l86.053 249.655v30.378H15.673v-30.38l85.884-249.653h35.325v-15.673H90.374L.426 457.585 0 458.824v48.675h512v-48.677z"/><path d="M136.882 276.574h79.412v15.673h-79.412zM216.294 300.607h31.347v15.673h-31.347zM152.555 347.627h31.347v15.674h-31.347zM183.902 396.737h135.837v15.673H183.902zM319.739 412.411h48.065v15.673h-48.065zM103.445 420.77h33.437v15.673h-33.437zM95.086 381.064h32.392v15.673H95.086zM311.38 268.215h32.392v15.673H311.38zM343.771 292.247h24.033v15.673h-24.033zM343.771 331.954h24.033v15.673h-24.033zM375.118 355.986h33.437v15.673h-33.437zM0 164.77h136.882v15.673H0zM247.641 164.77H512v15.673H247.641zM0 99.986h512v15.673H0zM439.25 75.956c-4.201-39.998-38.192-71.454-79.371-71.454-41.178 0-75.169 31.457-79.371 71.454H0v15.673h512V75.956h-72.75zm-142.951 0c4.097-31.548 31.039-55.781 63.581-55.781s59.484 24.233 63.581 55.781H296.299z"/></svg>