<svg xmlns="http://www.w3.org/2000/svg" viewBox="0 0 512 512"><path d="M503.983 384.802h-43.29v-18.944c19.459-3.757 34.205-20.909 34.205-41.448 0-30.383-3.822-65.024-10.225-92.665-2.989-12.904-12.085-52.171-31.996-52.171-11.752 0-18.32 13.081-20.479 17.38-4.261 8.487-8.136 20.192-11.517 34.79-5.936 25.625-9.648 57.258-10.159 85.945-9.964 3.334-17.169 12.749-17.169 23.821v.534h-18.171v-18.171h.534c9.136 0 16.568-7.432 16.568-16.568v-17.102c0-9.136-7.432-16.568-16.568-16.568H289.67v-18.661c33.659-3.981 59.858-32.673 59.858-67.385 0-37.426-30.448-67.875-67.875-67.875-37.426 0-67.875 30.448-67.875 67.875 0 34.712 26.199 63.405 59.858 67.385v18.661h-34.739c-9.136 0-16.568 7.432-16.568 16.568v17.102c0 9.136 7.432 16.568 16.568 16.568h.534v18.171H221.26v-.534c0-13.851-11.268-25.119-25.119-25.119a8.017 8.017 0 0 0 0 16.034c5.01 0 9.086 4.076 9.086 9.086v43.29h-78.029v-35.763c33.659-3.981 59.858-32.673 59.858-67.385 0-38.948-6.553-80.04-17.981-112.74-13.202-37.779-30.455-57.748-49.894-57.748s-36.692 19.969-49.894 57.748c-.416 1.19-.81 2.413-1.213 3.624-2.872-1.003-5.796-1.514-8.751-1.514-17.06 0-32.199 16.208-43.78 46.871C5.812 243.667 0 277.092 0 307.307c0 29.991 22.375 54.84 51.307 58.767v18.728H8.017a8.017 8.017 0 0 0 0 16.034h495.967a8.017 8.017 0 1 0-.001-16.034zM59.324 333.495a8.017 8.017 0 0 0-8.017 8.017v8.329c-20.051-3.771-35.273-21.404-35.273-42.533 0-28.382 5.425-59.69 14.51-83.748 8.503-22.516 19.531-36.503 28.78-36.503 1.329 0 2.705.297 4.116.872-7.785 28.871-12.133 62.008-12.133 93.725 0 25.552 14.198 47.843 35.114 59.421a42.955 42.955 0 0 1-19.081 8.77v-8.333a8.016 8.016 0 0 0-8.016-8.017zm51.841 51.307H67.34v-18.729c13.64-1.839 26.154-8.33 35.558-18.532a67.455 67.455 0 0 0 8.267 1.499v35.762zm8.017-85.512a8.017 8.017 0 0 0-8.017 8.017v25.566c-24.792-3.865-43.825-25.359-43.825-51.219 0-36.672 6.387-76.841 17.083-107.452 10.132-28.993 23.45-47.004 34.758-47.004 11.308 0 24.626 18.011 34.758 47.004 10.696 30.611 17.083 70.78 17.083 107.452 0 25.86-19.033 47.354-43.825 51.219v-25.566a8.016 8.016 0 0 0-8.015-8.017zm110.63-111.699c0-28.585 23.256-51.841 51.841-51.841s51.841 23.256 51.841 51.841c0 25.86-19.033 47.354-43.825 51.219v-8.464a8.017 8.017 0 0 0-16.034 0v8.464c-24.79-3.865-43.823-25.359-43.823-51.219zm9.086 120.25a.534.534 0 0 1-.534-.534v-17.102c0-.295.239-.534.534-.534h136.818c.295 0 .534.239.534.534v17.102a.534.534 0 0 1-.534.534H238.898zm120.25 16.034v18.171H289.67v-18.171h69.478zm-85.511 60.927h-52.376V358.08h52.376v26.722zm0-42.756h-18.171v-18.171h18.171v18.171zm119.716 42.756H289.67V358.08h103.683v26.722zm51.307 0h-35.273v-43.29c0-2.415.952-4.606 2.494-6.235 4.132 15.499 16.88 27.511 32.78 30.58v18.945zm8.016-51.307a8.017 8.017 0 0 0-8.017 8.017v7.825c-10.53-3.395-18.171-13.283-18.171-24.928 0-27.883 3.409-60.023 9.118-85.973 6.998-31.807 14.616-41.57 17.07-42.765 2.454 1.196 10.072 10.958 17.07 42.765 5.709 25.951 9.118 58.09 9.118 85.973 0 11.645-7.642 21.534-18.171 24.928v-7.825a8.017 8.017 0 0 0-8.017-8.017z"/></svg>