<svg xmlns="http://www.w3.org/2000/svg" viewBox="0 0 448 448"><path d="M152 264a8 8 0 0 0 8-8v-56a8 8 0 0 0-8-8h-48a8 8 0 0 0-8 8v56a8 8 0 0 0 8 8h48zm-40-56h32v40h-32v-40zM176 264h48a8 8 0 0 0 8-8v-56a8 8 0 0 0-8-8h-48a8 8 0 0 0-8 8v56a8 8 0 0 0 8 8zm8-56h32v40h-32v-40z"/><path d="M440 344v-24a8 8 0 0 0-8-8v-24a8 8 0 0 0 0-16h-40v-82.151l5.574 1.774A8 8 0 0 0 408 184v-32a8 8 0 0 0-5.574-7.623l-176-56a8.004 8.004 0 0 0-4.852 0L136 115.605V96a8 8 0 0 0-8-8H80a8 8 0 0 0-8 8v39.969l-26.426 8.408A8 8 0 0 0 40 152v32a8 8 0 0 0 10.426 7.623L56 189.849V272H16a8 8 0 0 0 0 16v24a8 8 0 0 0-8 8v24a8 8 0 0 0 0 16h432a8 8 0 0 0 0-16zm-24-56v24h-24v-24h24zm-64 24v-24h24v24h-24zm-280 0v-24h24v24H72zm40-24h64v24h-64v-24zm80 0h64v24h-64v-24zm80 0a8 8 0 0 0 0-16v-64h64v64a8 8 0 0 0 0 16v24h-64v-24zM88 104h32v16.696l-32 10.182V104zm-32 53.85l168-53.454 168 53.454v15.21l-165.574-52.683a8.005 8.005 0 0 0-4.852 0L56 173.06v-15.21zm16 26.909l152-48.363 152 48.363V272h-24v-72a8 8 0 0 0-8-8h-80a8 8 0 0 0-8 8v72H72v-87.241zM32 288h24v24H32v-24zm-8 40h400v16H24v-16z"/></svg>