<svg xmlns="http://www.w3.org/2000/svg" viewBox="0 0 444.18 444.18"><path d="M400.348 294.485c-8.014-20.093-24.798-33.091-46.049-35.662-34.474-4.172-72.55 19.051-104.452 63.713-71.546 100.165-139.683 106.957-158.871 106.632-16.64-.268-27.452-5.433-30.785-10.433-8.769-13.154 9.513-36.94 20.978-48.972 8.255 6.058 18.181 9.334 28.613 9.334 12.955 0 25.134-5.045 34.294-14.206l106.461-106.46c2.786.3 5.602.467 8.444.467 20.7 0 40.162-8.062 54.801-22.7 14.638-14.638 22.699-34.1 22.699-54.801s-8.062-40.163-22.699-54.801c-30.219-30.217-79.385-30.215-109.602 0-14.638 14.638-22.699 34.1-22.699 54.801 0 2.842.167 5.658.467 8.444L75.488 296.304c-9.161 9.16-14.206 21.339-14.206 34.294 0 10.412 3.265 20.319 9.3 28.564-4.132 4.317-10.097 11.035-15.416 18.867-16.741 24.653-13.295 40.269-7.456 49.027 6.927 10.392 23.011 16.788 43.023 17.11.541.009 1.089.013 1.651.013 17.095 0 43.821-4.224 76.704-23.5 33.207-19.465 64.485-49.552 92.964-89.424 28.193-39.471 62.012-60.985 90.444-57.541 15.637 1.891 27.999 11.487 33.918 26.327 10.44 26.179-.117 62.094-28.242 96.072-8.815 10.649-16.981 21.185-24.273 31.314a7.501 7.501 0 0 0 12.174 8.764c7.096-9.856 15.054-20.123 23.654-30.513 31.679-38.27 43.126-79.837 30.621-111.193zM86.095 354.286c-6.327-6.327-9.812-14.74-9.812-23.688 0-6.392 1.787-12.505 5.108-17.785l46.177 46.177c-5.28 3.322-11.394 5.108-17.785 5.108-8.948 0-17.361-3.485-23.688-9.812zm128.693-128.693c-11.805-11.805-18.306-27.5-18.306-44.194 0-3.396.283-6.747.811-10.036l71.725 71.725c-3.289.528-6.64.811-10.036.811-16.694 0-32.389-6.502-44.194-18.306zm0-88.389c12.185-12.184 28.189-18.276 44.194-18.276s32.01 6.092 44.193 18.276c11.806 11.805 18.307 27.5 18.307 44.194s-6.501 32.39-18.307 44.194a62.512 62.512 0 0 1-17.905 12.534l-83.017-83.017a62.535 62.535 0 0 1 12.535-17.905zm-10.606 98.995c8.337 8.337 18.243 14.533 29.047 18.329l-94.455 94.455-47.376-47.376 94.455-94.456c3.796 10.805 9.991 20.711 18.329 29.048zM71.404 156.771c3.832 0 7.727-.683 11.515-2.124 8.114-3.085 14.542-9.146 18.097-17.065s3.815-16.75.729-24.864L74.201 40.279l60.756-23.103 17.82 46.862a32.297 32.297 0 0 0-18.183 1.419c-16.75 6.37-25.195 25.179-18.826 41.93 4.929 12.961 17.306 20.95 30.414 20.95 3.832 0 7.727-.683 11.515-2.124 8.114-3.085 14.542-9.146 18.097-17.065s3.815-16.75.729-24.864l-30.211-79.45A7.5 7.5 0 0 0 136.636.49L61.859 28.924a7.5 7.5 0 0 0-4.345 9.676L78 92.472a32.306 32.306 0 0 0-18.183 1.419c-16.75 6.37-25.195 25.179-18.826 41.93 4.928 12.961 17.305 20.95 30.413 20.95zm90.705-53.767a17.384 17.384 0 0 1-9.745 9.189c-9.021 3.428-19.147-1.118-22.578-10.137-3.429-9.02 1.118-19.148 10.137-22.578a17.414 17.414 0 0 1 6.201-1.144c7.058 0 13.723 4.302 16.377 11.281a17.383 17.383 0 0 1-.392 13.389zm-96.961 4.908a17.414 17.414 0 0 1 6.201-1.144c7.058 0 13.723 4.302 16.377 11.281a17.388 17.388 0 0 1-.393 13.389 17.384 17.384 0 0 1-9.745 9.189c-9.021 3.429-19.147-1.118-22.578-10.137-3.428-9.02 1.119-19.148 10.138-22.578z"/></svg>