<svg xmlns="http://www.w3.org/2000/svg" viewBox="0 0 511 511"><path d="M503.5 484h-8.883L427.09 45.488C424.103 26.083 407.684 12 388.051 12H122.95c-19.633 0-36.052 14.084-39.04 33.488L16.383 484H7.5a7.5 7.5 0 0 0 0 15h32a7.5 7.5 0 0 0 0-15h-7.94L95.774 67H200v208.5c0 .227.014.451.034.673C180.244 283.316 176 292.741 176 299.5v32c0 10.336 6.71 19.128 16 22.266V372h-22.5c-.866 0-1.702.127-2.5.345V363.5c0-12.958-10.542-23.5-23.5-23.5a7.5 7.5 0 0 0 0 15c4.687 0 8.5 3.813 8.5 8.5v24c0 5.827 3.235 10.908 8 13.555v8.445c0 5.238 4.262 9.5 9.5 9.5h172c5.238 0 9.5-4.262 9.5-9.5v-8.445c4.765-2.647 8-7.728 8-13.555v-24c0-4.687 3.813-8.5 8.5-8.5a7.5 7.5 0 0 0 0-15c-12.958 0-23.5 10.542-23.5 23.5v8.845a9.466 9.466 0 0 0-2.5-.345H319v-18.234c9.29-3.138 16-11.93 16-22.266v-32c0-6.759-4.244-16.183-24.034-23.327.02-.222.034-.446.034-.673V67h104.226l64.214 417h-7.94a7.5 7.5 0 0 0 0 15h16.653l.022.001.013-.001H503.5a7.5 7.5 0 0 0 0-15zM336 404H175v-17h161v17zm-129-32v-17h97v17h-97zm113-72.5v32c0 4.687-3.813 8.5-8.5 8.5h-112c-4.687 0-8.5-3.813-8.5-8.5v-32c0-3.843 20.105-16.5 64.5-16.5s64.5 12.657 64.5 16.5zm-24-27.521c-12.04-2.587-25.977-3.979-40.5-3.979s-28.46 1.393-40.5 3.979V67h81v204.979zM311 52v-.5a7.5 7.5 0 0 0-15 0v.5h-81v-.5a7.5 7.5 0 0 0-15 0v.5H98.084l.651-4.229C100.588 35.735 110.772 27 122.95 27h265.101c12.178 0 22.361 8.735 24.214 20.771l.651 4.229H311z"/></svg>