<svg xmlns="http://www.w3.org/2000/svg" viewBox="0 0 413.17001 169.2551" height="169.255" width="413.17"><g fill="#fff"><path d="M205.998 26.871c2.206 10.289 4.63 14.842 1.37 27.482 3.65 12.92 12.557 22.11 12.557 22.11 10.098.443 9.01.09 21.945-.245-.475-23.46 16.789-34.693 40.291-34.898-20.194-11.617-34.439 5.463-49.134 7.406-11.512 1.525-26.33-9.057-23.683-34.93-1.872 2.789-2.427 9.339-3.347 13.075m12.892 9.559a12.252 12.252 0 0 0-.107 3.961c4.087 4.853 10.7 5.312 16.787 5.203 1.635-.028 3.18-.888 3.965-2.321a12.795 12.795 0 0 0 1.349-3.772c1.216-6.417-3.034-11.151-9.108-11.997a13.226 13.226 0 0 0-1.845-.13c-5.329 0-9.95 3.294-11.041 9.056M0 166.416c6.666 6.519 18.42.516 18.975-5.041 1.184-10.881-3.438-14.844.56-18.594 1.975-1.509 5.925-3.677 8.664-.984-2.082 17.886 8.415 30.67 22.851 23.143-9.972-15.745-10.03-41.081-5.715-52.174 1.906-4.9.424-7.256-2.966-7.257C31.986 105.508 3.703 127.603 0 166.416m31.892-46.49c-.676 1.652-2.197 8.098-2.355 12.234-4.42-1.34-10.038 2.794-12.573 7.056 5.052-11.662 8.87-17.006 14.928-19.29m200.023 38.725l.074.054c54.589 26.77 77.56-26.576 42.752-30.029 7.593-12.99.864-22.697-9.39-22.696-12.265 0-29.572 13.891-33.436 52.671m34.76-27.648c-7.851 3.847-13.155 9.838-19.839 14.992 6.47-40.192 26.914-29.079 19.839-14.992m-16.942 23.3c18.096-22.09 32.828-14.345 30.758-6.603-1.056 3.945-6.47 7.89-18.023 7.89-3.624 0-7.852-.389-12.735-1.286m98.517-47.005l-.951.07c-2.729.201-5.428.836-7.889 2.034-14.527 7.068-2.377 18.928 7.254 15.33 2.949-1.102 4.385-1.814 8.362-2.937 6.472 4.11 7.773 10.125.294 19.209-3.281 3.988-6.824 7.046-7.079 14.125-.17 4.718 2.858 9.123 7.405 10.39 5.09 1.42 10.93.036 12.089-2.28 9.588-19.175 2.594-31.5-5.479-42.467 4.577-.888 13.438.853 18.889 1.35 1.763.16 2.61-2.095 1.181-3.135-11.214-8.163-16.977-10.272-23.81-11.325a43.774 43.774 0 0 0-6.667-.5c-1.2 0-2.401.046-3.599.136m-31.892 25.657c-3.292 15.735-10.33 30.743-10.037 17.295.153-7.042 3.61-13.982.082-19.622-5.504-8.8-17.98-7.546-18.207.581.924.828 1.792 1.74 2.598 2.74 4.529 5.636 5.975 13.17.23 24.471 6.855 9.267 20.555 25.683 30.169-20.912 3.295 7.855 8.69 8.621 8.757 28.386 3.588.348 8.539-19.406 7.724-37.271a11.602 11.602 0 0 1-.689-.274 13.297 13.297 0 0 1-4.385-3.097c-1.452-1.543-2.546-3.423-3.125-5.465-.949-3.358-.411-6.797 1.469-9.7-1.968-1.522-4.188-2.248-6.366-2.248-7.89 0-15.245 9.51-8.22 25.116m-246.853 33.68c8.596-5.637-6.291-13.85-7.4-19.567 19.166 8.45 14.719 12.526 16.571 15.862 5.745 8.338 19.085 5.188 20.754-.371 3.141-10.47-20.937-21.495-35.732-18.975 3.568-6.296 13.576-10.334 22.576-16.231 11.261-7.378-6.886-18.827-20.011-10.007-6.792 4.564-6.257 19.157-7.175 24.595-2.23-2.978-4.977-18.668-4.895-28.095-13.31 16.74-8.068 61.985 15.312 52.79m74.391-36.845c-.735 2.027-1.286 4.37-1.612 6.86 1.52 1.658 2.695 4.742 3.427 6.99 1.462 4.487.943 9.05-.895 13.09 2.329 4.67 6.198 8.07 12.022 8.523-19.333-33.86 27.595-33.839 12.726.64 14.909 5.984 22.589-17.316 14.452-37.12-3.652-8.889-11.817-13.467-19.98-13.466-8.3 0-16.597 4.735-20.14 14.484m27.892 9.406c-1.888-2.256-10.82-7.97-17.253-2.369 2.76-13.651 15.933-10.944 17.253 2.369m-79.91-20.41c3.753 3.382 1.53 8.57-1.434 10.47.664 5.646 4.522 16.464 7.219 23.2.83.851 1.63 1.747 2.392 2.692 2.74 3.401 3.822 4.865 3.822 10.054 21.96 8.929 35.45-2.473 38.284-13.874 2.408-9.682-2.869-19.365-17.167-16.595 3.595-13.463-10.109-16.923-22.078-16.923-4.152 0-8.097.416-11.037.976m6.588 8.821c7.177 2.899 14.134 1.581 13.916 13.374-4.582 4.385-3.986 4.701-8.02 9.891-4.137-5.929-6.517-19.36-5.896-23.265m11.89 28.57c12.227-20.4 25.678-13.495 23.597-6.59-1.047 3.472-6.022 6.945-17.055 6.945-1.982 0-4.158-.111-6.542-.355m262.85 7.325c1.41.584 4.302 2.671 10.995 1.363 4.773-.933 4.283-9.623 2.874-15.854 2.293-2.39 7.781.067 9.843 1.541.573 1.515 1.596 4.966 2.19 9.051.07.487.186.974.407 1.413 2.416 4.779 8.79 6.746 13.654 3.599-4.709-18.623-19-40.298-42.458-40.535 3.104 7.37 11.17 24.776 2.494 39.422m10.379-27.834c4.272 1.29 6.251 3.164 11.667 10.144-2.29-1.794-5.217-2.496-9.118-.966-.422-3.181-2.549-9.178-2.549-9.178m-164.183 6.924c-5.625.503-13.725 1.086-17.18 2.996-2.747 1.518-1.85 4.411 1.185 5.449 2.568.879 7.622 1.105 17.107.757 9.255-.34 9.378-9.265.263-9.266-.437 0-.895.021-1.375.064m12.5 16.051c.01.005.017.01.013.005a.08.08 0 0 0-.021-.011c-.002 0 .003.004.008.006"/><path d="M165.813 49.2c-6.705.722-14.224-1.326-22.102-3.374-14.479-3.765-30.177-7.53-44.28 5.901 29.542-6.922 68.495 8.997 67.077 33.72 16.393.473 29.1-5.977 29.1-5.977 16.378-24.845 11.162-61.041-8.98-79.47 12.37 34.965-5.908 47.594-20.815 49.2m1.355-25.463c-6.69 2.552-11.098 10.213-8.587 16.794.903 2.367 1.734 4.319 3.651 5.713 7.557-1.57 17.155-3.553 21.392-10.72a12.554 12.554 0 0 0-.825-4.232c-1.953-5.118-6.279-8.388-11.253-8.388-1.42.001-2.894.267-4.379.834M360.231 51.541c-4.179 9.053 5.051 20.725-17.482 21.288 12.687 3.607 25.076-5.604 27.876-15.369 1.042-5.56-2.445-9.18-5.823-9.181-1.78 0-3.53 1.005-4.57 3.262"/><path d="M210.924 84.076C158.836 91.15 73.592 115.645 4.91 80.483c82.223 46.995 168.615 25.113 221.97 17.868 62.758-8.523 138.674-6.78 179.577 20.758-23.957-29.219-76.26-39.56-130.472-39.558-21.958 0-44.24 1.698-65.062 4.525M350.241 77.479c21.886-.808 35.085 5.158 40.761 11.318 4.764 5.27 11.518-.525 9.47-6.318-1.48-4.194-7.566-8.388-22.355-8.387-7.12 0-16.263.973-27.876 3.387"/></g></svg>